# xmcd
# Track frame offsets:
# 150
# 15750
# 31038
# 45470
# 61205
# 74753
# 89376
# 106208
# 119525
# 136229
# 151937
# 168710
# 180392
# 193782
# 204542
#
# Disc length: 2987 seconds
# Revision: 3
# Processed by: cddbd v1.5.2PL0 Copyright (c) Steve Scherf et al.
# Submitted via: VisiTrax 2.11.3.279 - For more info visit www.synapsa.com
#
DISCID=c30ba90f
DTITLE=Slim Dusty - West Of Winton
DYEAR=1999
DGENRE=Australian Country
TTITLE0=Waltzing Matilda
TTITLE1=West Of Winton
TTITLE2=Saddle Up And Ride
TTITLE3=The Vanishing Breed
TTITLE4=The Old Saddle
TTITLE5=Truthful Fella
TTITLE6=Old Scobie
TTITLE7=Back In The Show Again
TTITLE8=Finney's Home Brew
TTITLE9=The Shearer's Story
TTITLE10=Old Dingo
TTITLE11=Happy Anniversary
TTITLE12=Ham And Eggs
TTITLE13=Sassafras Gap
TTITLE14=Dan The Wreck
EXTD=1999 EMI Music Australia
EXTT0=
EXTT1=
EXTT2=
EXTT3=
EXTT4=
EXTT5=
EXTT6=
EXTT7=
EXTT8=
EXTT9=
EXTT10=
EXTT11=
EXTT12=
EXTT13=
EXTT14=
PLAYORDER=
